{
  "accessors": [
    {
      "bufferView": 2,
      "componentType": 5126,
      "count": 2800,
      "max": [
        0.3912844955921173,
        1.4149341583251953,
        1.4962775707244873
      ],
      "min": [
        -0.3912844955921173,
        -1.4149341583251953,
        -0.6324350237846375
      ],
      "type": "VEC3"
    },
    {
      "bufferView": 2,
      "byteOffset": 33600,
      "componentType": 5126,
      "count": 2800,
      "max": [
        1.0,
        0.9991011619567871,
        0.9999936819076538
      ],
      "min": [
        -1.0,
        -0.9998918771743774,
        -0.9999532699584961
      ],
      "type": "VEC3"
    },
    {
      "bufferView": 3,
      "componentType": 5126,
      "count": 2800,
      "max": [
        1.0,
        0.9999990463256836,
        0.9366950392723083,
        1.0
      ],
      "min": [
        -0.9999309182167053,
        0.0,
        -0.7534787058830261,
        -1.0
      ],
      "type": "VEC4"
    },
    {
      "bufferView": 1,
      "componentType": 5126,
      "count": 2800,
      "max": [
        0.7500001192092896,
        0.8750001192092896
      ],
      "min": [
        0.25,
        0.5
      ],
      "type": "VEC2"
    },
    {
      "bufferView": 0,
      "componentType": 5125,
      "count": 12768,
      "type": "SCALAR"
    },
    {
      "bufferView": 2,
      "byteOffset": 67200,
      "componentType": 5126,
      "count": 27726,
      "max": [
        0.14435802400112152,
        0.9898245334625244,
        2.113182306289673
      ],
      "min": [
        -0.14435814321041107,
        -0.9845606684684753,
        -2.440638780593872
      ],
      "type": "VEC3"
    },
    {
      "bufferView": 2,
      "byteOffset": 399912,
      "componentType": 5126,
      "count": 27726,
      "max": [
        0.9999943971633911,
        0.9999997615814209,
        1.0
      ],
      "min": [
        -0.9999943971633911,
        -1.0,
        -0.9999985694885254
      ],
      "type": "VEC3"
    },
    {
      "bufferView": 3,
      "byteOffset": 44800,
      "componentType": 5126,
      "count": 27726,
      "max": [
        1.0,
        0.9999985098838806,
        0.7270528674125671,
        -1.0
      ],
      "min": [
        -1.0,
        -0.9999711513519287,
        -0.9943571090698242,
        -1.0
      ],
      "type": "VEC4"
    },
    {
      "bufferView": 1,
      "byteOffset": 22400,
      "componentType": 5126,
      "count": 27726,
      "max": [
        0.9966706037521362,
        0.9947360754013062
      ],
      "min": [
        0.0033292770385742188,
        0.0033292770385742188
      ],
      "type": "VEC2"
    },
    {
      "bufferView": 0,
      "byteOffset": 51072,
      "componentType": 5125,
      "count": 153600,
      "type": "SCALAR"
    }
  ],
  "asset": {
    "extras": {
      "author": "Erwin Sunny Ray (https://sketchfab.com/erwinray95)",
      "license": "CC-BY-4.0 (http://creativecommons.org/licenses/by/4.0/)",
      "source": "https://sketchfab.com/3d-models/fish-bone-e7d06e19f05b472d866c58678658a906",
      "title": "Fish Bone"
    },
    "generator": "Sketchfab-12.68.0",
    "version": "2.0"
  },
  "bufferViews": [
    {
      "buffer": 0,
      "byteLength": 665472,
      "name": "floatBufferViews",
      "target": 34963
    },
    {
      "buffer": 0,
      "byteLength": 244208,
      "byteOffset": 665472,
      "byteStride": 8,
      "name": "floatBufferViews",
      "target": 34962
    },
    {
      "buffer": 0,
      "byteLength": 732624,
      "byteOffset": 909680,
      "byteStride": 12,
      "name": "floatBufferViews",
      "target": 34962
    },
    {
      "buffer": 0,
      "byteLength": 488416,
      "byteOffset": 1642304,
      "byteStride": 16,
      "name": "floatBufferViews",
      "target": 34962
    }
  ],
  "buffers": [
    {
      "byteLength": 2130720,
      "uri": "scene.bin"
    }
  ],
  "images": [
    {
      "uri": "textures/material_0_normal.png"
    },
    {
      "uri": "textures/Material_normal.png"
    }
  ],
  "materials": [
    {
      "doubleSided": true,
      "name": "material_0",
      "normalTexture": {
        "index": 0
      },
      "pbrMetallicRoughness": {
        "metallicFactor": 0.0,
        "roughnessFactor": 0.5793264992186977
      }
    },
    {
      "doubleSided": true,
      "name": "Material",
      "normalTexture": {
        "index": 1
      },
      "pbrMetallicRoughness": {
        "baseColorFactor": [
          0.8,
          0.8,
          0.8,
          1.0
        ],
        "metallicFactor": 0.0
      }
    }
  ],
  "meshes": [
    {
      "name": "Object_0",
      "primitives": [
        {
          "attributes": {
            "NORMAL": 1,
            "POSITION": 0,
            "TANGENT": 2,
            "TEXCOORD_0": 3
          },
          "indices": 4,
          "material": 1,
          "mode": 4
        }
      ]
    },
    {
      "name": "Object_1",
      "primitives": [
        {
          "attributes": {
            "NORMAL": 6,
            "POSITION": 5,
            "TANGENT": 7,
            "TEXCOORD_0": 8
          },
          "indices": 9,
          "material": 0,
          "mode": 4
        }
      ]
    }
  ],
  "nodes": [
    {
      "children": [
        1
      ],
      "matrix": [
        1.0,
        0.0,
        0.0,
        0.0,
        0.0,
        2.220446049250313e-16,
        -1.0,
        0.0,
        0.0,
        1.0,
        2.220446049250313e-16,
        0.0,
        0.0,
        0.0,
        0.0,
        1.0
      ],
      "name": "Sketchfab_model"
    },
    {
      "children": [
        2
      ],
      "name": "root"
    },
    {
      "children": [
        3,
        5
      ],
      "matrix": [
        1.0,
        0.0,
        0.0,
        0.0,
        0.0,
        2.220446049250313e-16,
        1.0,
        0.0,
        0.0,
        -1.0,
        2.220446049250313e-16,
        0.0,
        0.0,
        0.0,
        0.0,
        1.0
      ],
      "name": "GLTF_SceneRootNode"
    },
    {
      "children": [
        4
      ],
      "matrix": [
        8.688795516409442e-08,
        0.9999999999999963,
        8.320455435750773e-12,
        0.0,
        -0.8824430527574586,
        7.666975831988054e-08,
        0.4704192371067443,
        0.0,
        0.47041923710674255,
        -4.0881107943313566e-08,
        0.8824430527574619,
        0.0,
        -0.6522849798202515,
        -0.9505791664123535,
        1.471426248550415,
        1.0
      ],
      "name": "Cube_0"
    },
    {
      "mesh": 0,
      "name": "Object_4"
    },
    {
      "children": [
        6
      ],
      "matrix": [
        8.445816213065171e-08,
        0.9999999999999964,
        -4.3509196245850035e-11,
        0.0,
        -0.9920890841484356,
        8.379548266379544e-08,
        0.12553584792206296,
        0.0,
        0.12553584792206252,
        -1.0559362009776585e-08,
        0.9920890841484391,
        0.0,
        -1.2449508905410767,
        -1.1772671937942505,
        -2.2266266345977783,
        1.0
      ],
      "name": "Cube.001_2"
    },
    {
      "mesh": 1,
      "name": "Object_6"
    }
  ],
  "samplers": [
    {
      "magFilter": 9729,
      "minFilter": 9987,
      "wrapS": 10497,
      "wrapT": 10497
    }
  ],
  "scene": 0,
  "scenes": [
    {
      "name": "Sketchfab_Scene",
      "nodes": [
        0
      ]
    }
  ],
  "textures": [
    {
      "sampler": 0,
      "source": 0
    },
    {
      "sampler": 0,
      "source": 1
    }
  ]
}
